<svg width="64" height="64" viewBox="0 0 64 64" fill="none" xmlns="http://www.w3.org/2000/svg">
<rect width="64" height="64" rx="12" fill="url(#paint0_linear_7_47)"/>
<path d="M32 12C27.7565 12 23.6869 13.6857 20.6863 16.6863C17.6857 19.6869 16 23.7565 16 28C16 38.8 30.1 51 30.7 51.52C31.0623 51.8299 31.5233 52.0001 32 52.0001C32.4767 52.0001 32.9377 51.8299 33.3 51.52C34 51 48 38.8 48 28C48 23.7565 46.3143 19.6869 43.3137 16.6863C40.3131 13.6857 36.2435 12 32 12ZM32 47.3C27.74 43.3 20 34.68 20 28C20 24.8174 21.2643 21.7652 23.5147 19.5147C25.7652 17.2643 28.8174 16 32 16C35.1826 16 38.2348 17.2643 40.4853 19.5147C42.7357 21.7652 44 24.8174 44 28C44 34.68 36.26 43.32 32 47.3ZM32 20C30.4177 20 28.871 20.4692 27.5554 21.3482C26.2398 22.2273 25.2145 23.4767 24.609 24.9385C24.0035 26.4003 23.845 28.0089 24.1537 29.5607C24.4624 31.1126 25.2243 32.538 26.3431 33.6569C27.462 34.7757 28.8874 35.5376 30.4393 35.8463C31.9911 36.155 33.5997 35.9965 35.0615 35.391C36.5233 34.7855 37.7727 33.7602 38.6518 32.4446C39.5308 31.129 40 29.5823 40 28C40 25.8783 39.1571 23.8434 37.6569 22.3431C36.1566 20.8429 34.1217 20 32 20ZM32 32C31.2089 32 30.4355 31.7654 29.7777 31.3259C29.1199 30.8864 28.6072 30.2616 28.3045 29.5307C28.0017 28.7998 27.9225 27.9956 28.0769 27.2196C28.2312 26.4437 28.6122 25.731 29.1716 25.1716C29.731 24.6122 30.4437 24.2312 31.2196 24.0769C31.9956 23.9225 32.7998 24.0017 33.5307 24.3045C34.2616 24.6072 34.8864 25.1199 35.3259 25.7777C35.7654 26.4355 36 27.2089 36 28C36 29.0609 35.5786 30.0783 34.8284 30.8284C34.0783 31.5786 33.0609 32 32 32Z" fill="#D9D9D9"/>
<defs>
<linearGradient id="paint0_linear_7_47" x1="0" y1="32" x2="64" y2="32" gradientUnits="userSpaceOnUse">
<stop stop-color="#10B981"/>
<stop offset="0.802885" stop-color="#06B6D4"/>
</linearGradient>
</defs>
</svg>
